<svg width="32" height="32" viewBox="0 0 32 32" fill="none" xmlns="http://www.w3.org/2000/svg">
<path d="M16 32C24.8366 32 32 24.8366 32 16C32 7.16344 24.8366 0 16 0C7.16344 0 0 7.16344 0 16C0 24.8366 7.16344 32 16 32Z" fill="#CD0505"/>
<path fill-rule="evenodd" clip-rule="evenodd" d="M14.8023 7.19691C14.4275 6.98418 14.0354 6.94382 13.6259 7.07582C12.418 7.46508 11.3106 8.04602 10.3037 8.81862C9.14644 9.70661 8.20314 10.7822 7.47381 12.0455C6.74448 13.3088 6.28461 14.6635 6.09421 16.1097C5.92874 17.3665 5.97901 18.6146 6.24501 19.8539C6.42371 20.6862 7.26041 21.1905 8.08261 20.9702L16.776 18.6408C17.5762 18.4264 18.051 17.6039 17.8366 16.8037L15.5072 8.11041C15.3991 7.70675 15.1641 7.40225 14.8023 7.19691ZM17.447 9.55469L18.0021 11.6264C18.5421 11.718 19.0699 11.8869 19.5854 12.133C20.6543 12.6433 21.4982 13.4035 22.1169 14.4136C22.7356 15.4237 23.0295 16.5207 22.9984 17.7048C22.9674 18.8889 22.6165 19.9691 21.9457 20.9454C21.2749 21.9217 20.3924 22.6366 19.2982 23.0902C18.204 23.5438 17.0745 23.6629 15.9097 23.4476C14.7449 23.2323 13.7327 22.7172 12.873 21.9024C12.6951 21.7337 12.5296 21.5579 12.3766 21.3748L10.3005 21.9311C10.6363 22.4418 11.0352 22.9161 11.4972 23.3539C12.6435 24.4404 13.9931 25.1272 15.5461 25.4143C17.0992 25.7014 18.6052 25.5426 20.0641 24.9378C21.523 24.3329 22.6997 23.3797 23.5941 22.078C24.4885 20.7763 24.9564 19.3361 24.9977 17.7572C25.0391 16.1784 24.6473 14.7156 23.8224 13.3689C22.9974 12.0221 21.8723 11.0085 20.447 10.3281C19.4794 9.86616 18.4794 9.60835 17.447 9.55469Z" fill="white"/>
</svg>
