<svg width="28" height="29" viewBox="0 0 28 29" fill="none" xmlns="http://www.w3.org/2000/svg">
<path d="M23.4006 4.71457C23.2007 4.51477 23.0008 4.11517 22.601 3.91537C22.4011 3.71557 22.2012 3.31597 22.0013 3.11617C21.9077 2.93266 21.7643 2.77916 21.5876 2.67318C21.4109 2.5672 21.2079 2.513 21.0019 2.51676H7.80897C7.46269 2.46453 7.10905 2.53523 6.8095 2.71656C6.60961 2.91636 6.40972 2.91636 6.20983 3.11617L5.61015 3.71557L4.61069 4.71457C4.41079 5.11417 4.01101 5.51377 3.81112 5.91337H24.4C24.0003 5.51377 23.8004 5.11417 23.4006 4.71457ZM23.6005 18.1012H4.41079C4.08609 18.0762 3.75968 18.1164 3.45073 18.2193C3.14178 18.3223 2.85654 18.4859 2.61176 18.7006C2.24143 19.153 2.03066 19.7148 2.01209 20.299V24.0952C1.97361 24.4389 2.0274 24.7866 2.16792 25.1027C2.30845 25.4187 2.53064 25.6916 2.81166 25.8934C3.24628 26.2937 3.82 26.5088 4.41079 26.4928H23.4006C23.7253 26.5178 24.0517 26.4776 24.3606 26.3747C24.6696 26.2717 24.9548 26.1081 25.1996 25.8934C25.6001 25.459 25.8152 24.8855 25.7993 24.295V20.299C25.8152 19.7085 25.6001 19.135 25.1996 18.7006C24.9997 18.301 24.4 18.1012 23.6005 18.1012ZM16.0046 22.8964C15.8047 23.0962 15.8047 23.0962 15.6048 23.0962H12.6064C12.4978 23.1097 12.3877 23.0988 12.2839 23.0642C12.1801 23.0297 12.0854 22.9723 12.0067 22.8964C12.0067 22.6966 11.8068 22.4968 11.8068 22.297C11.8068 22.0972 11.8068 21.8974 12.0067 21.8974C12.2066 21.6976 12.2066 21.6976 12.6064 21.6976H15.4049C15.6048 21.6976 15.8047 21.6976 15.8047 21.8974C16.0046 22.0972 16.0046 22.0972 16.0046 22.297C16.2044 22.4968 16.0046 22.6966 16.0046 22.8964ZM25.3995 8.71057C25.1547 8.49587 24.8695 8.33224 24.5605 8.22931C24.2516 8.12637 23.9252 8.08621 23.6005 8.11117H4.41079C4.08609 8.08621 3.75968 8.12637 3.45073 8.22931C3.14178 8.33224 2.85654 8.49587 2.61176 8.71057C2.41642 8.88636 2.26162 9.10248 2.15807 9.34397C2.05453 9.58546 2.00472 9.84655 2.01209 10.1092V14.1052C1.9962 14.6957 2.21133 15.2691 2.61176 15.7036C2.85654 15.9183 3.14178 16.0819 3.45073 16.1849C3.75968 16.2878 4.08609 16.328 4.41079 16.303H23.6005C23.9252 16.328 24.2516 16.2878 24.5605 16.1849C24.8695 16.0819 25.1547 15.9183 25.3995 15.7036C25.7999 15.2691 26.0151 14.6957 25.9992 14.1052V10.1092C26.0065 9.84655 25.9567 9.58546 25.8532 9.34397C25.7496 9.10248 25.5948 8.88636 25.3995 8.71057ZM15.4049 12.9064H12.6064C12.4065 12.9064 12.2066 12.9064 12.2066 12.7066C12.0277 12.5413 11.8907 12.3358 11.8068 12.1072C11.8068 11.9074 11.8068 11.7076 12.0067 11.7076C12.2066 11.5078 12.2066 11.5078 12.6064 11.5078H15.4049C15.6048 11.5078 15.8047 11.5078 15.8047 11.7076C15.9084 11.7146 16.006 11.7589 16.0796 11.8324C16.1531 11.9059 16.1974 12.0035 16.2044 12.1072C16.0046 12.7066 15.8047 12.9064 15.4049 12.9064Z" fill="white"/>
</svg>
