<svg width="28" height="29" viewBox="0 0 28 29" fill="none" xmlns="http://www.w3.org/2000/svg">
<path d="M25.2663 5.00007H2.732C2.54101 4.99778 2.35686 5.07111 2.21973 5.20406C2.08259 5.33702 2.00361 5.51882 2 5.70979C2.00112 5.80463 2.02096 5.89833 2.0584 5.98548C2.09583 6.07263 2.15012 6.15153 2.21814 6.21764C2.28616 6.28375 2.36657 6.33576 2.45476 6.3707C2.54294 6.40564 2.63716 6.4228 2.732 6.42122L4.13943 6.4195V17.5144C4.13943 19.1515 5.324 20.2984 6.95771 20.2984H11.1834L9.20171 22.7498C9.12123 22.8249 9.05691 22.9156 9.01269 23.0164C8.96848 23.1172 8.9453 23.226 8.94457 23.3361C8.94457 23.7818 9.32857 24.1486 9.79829 24.1486C9.94073 24.1499 10.0813 24.116 10.2075 24.0499C10.3337 23.9838 10.4416 23.8876 10.5217 23.7698L13.3246 20.2966H14.732L17.528 23.7646C17.6074 23.8835 17.7151 23.9808 17.8413 24.0478C17.9676 24.1148 18.1085 24.1495 18.2514 24.1486C18.3892 24.1497 18.5251 24.1175 18.6477 24.0548C18.7704 23.9921 18.8761 23.9008 18.956 23.7886C19.0594 23.6438 19.1104 23.4681 19.1004 23.2904C19.0904 23.1128 19.0201 22.9438 18.9011 22.8115L16.8731 20.2984H21.0971C22.7309 20.2984 23.9137 19.1498 23.9137 17.5144V6.4195H25.22C25.3222 6.42596 25.4246 6.4115 25.521 6.37701C25.6173 6.34252 25.7057 6.28873 25.7806 6.21893C25.9175 6.08519 25.9964 5.9029 26 5.7115C25.9989 5.6168 25.9791 5.52325 25.9418 5.43621C25.9044 5.34917 25.8503 5.27035 25.7825 5.20427C25.7146 5.13818 25.6344 5.08613 25.5464 5.05109C25.4584 5.01605 25.3644 4.99871 25.2697 5.00007H25.2663ZM7.46514 17.3532C7.184 17.3532 6.95771 17.0258 6.95771 16.6435C6.95771 16.2612 7.184 15.9338 7.46514 15.9338H13.5509C13.8303 15.9338 14.0549 16.2064 14.0549 16.6435C14.0549 17.0258 13.832 17.3532 13.5491 17.3532H7.46514ZM7.46514 14.5161C7.184 14.5161 6.95771 14.1886 6.95771 13.8064C6.95771 13.4241 7.184 13.0966 7.46514 13.0966H13.5509C13.8303 13.0966 14.0549 13.4224 14.0549 13.8064C14.0549 14.1835 13.832 14.5161 13.5491 14.5161H7.46514ZM21.0423 11.6789C21.0423 12.0535 20.8941 12.4128 20.6301 12.6784C20.3661 12.944 20.0077 13.0944 19.6331 13.0966H16.8166C16.4422 13.0939 16.0841 12.9434 15.8201 12.6779C15.5562 12.4124 15.4079 12.0533 15.4074 11.6789V8.8915C15.4074 8.12522 16.0263 7.46865 16.8166 7.46865H19.6331C20.4217 7.46865 21.0406 8.12522 21.0406 8.8915V11.6755L21.0423 11.6789Z" />
</svg>
