<svg width="72" height="38" viewBox="0 0 72 38" fill="none" xmlns="http://www.w3.org/2000/svg">
<g id="logo_bw">
<g id="Clip path group">
<mask id="mask0_367_4228" style="mask-type:luminance" maskUnits="userSpaceOnUse" x="0" y="0" width="72" height="38">
<g id="SVGID_2_">
<path id="Vector" d="M28.9588 7.97487H9.99084C9.6855 7.96293 9.56336 7.70028 9.56336 7.70028L8.96489 6.19604C8.78168 5.76626 9.2458 5.76626 9.2458 5.76626H25.7221L26.626 5.02608C26.626 5.02608 27.1511 4.54854 27.5786 5.14546L29.1298 7.47345C29.1542 7.46151 29.3985 7.8913 28.9588 7.97487ZM15.7557 28.5448H21.313V24.6767H15.7557V28.5448ZM9.50229 22.7069C11.6519 21.513 13.5328 18.5284 13.6794 16.7735H9.50229V22.7069ZM28.2015 16.7735H23.2916V18.6598C23.2916 19.4238 23.3893 19.5432 24.1221 19.5432H28.2015V16.7735ZM23.487 21.8354L25.5634 23.5306C25.5634 23.5306 25.8809 23.8291 25.6 24.1037L24.7939 24.9035V25.2259V30.634L27.5176 30.6221C27.9695 30.6221 28.2015 30.3952 28.2015 29.9296V25.0707V21.8234L23.487 21.8354ZM13.9603 21.6205C14.7908 21.9189 15.4992 22.3248 15.6947 22.4204H17.6733C17.8443 22.4204 17.9542 22.4204 17.9542 22.4204H21.2031L21.7893 21.8473C20.2382 21.8712 20.1893 20.9161 20.1893 19.2567V16.7854H17.1237C16.1832 18.9821 15.5359 20.2595 13.9603 21.6205ZM20.5679 14.5052L22.0336 11.7593H14.7786C15.2794 12.1175 15.8046 12.5353 16.2809 12.9771C16.2809 12.9771 16.6473 13.2158 16.4275 13.5859C16.4275 13.5859 16.0977 14.0635 15.658 14.5052C17.2458 14.5052 18.9557 14.5052 20.5679 14.5052ZM23.4137 14.5171C25.7954 14.5171 27.5053 14.5171 27.5053 14.5171C27.8595 14.5171 28.1282 14.5052 28.2382 14.4932C28.6779 14.4336 29.5328 13.2994 29.9603 13.6217C30.4 13.956 32.2687 16.0094 32.2687 16.0094C32.2687 16.0094 32.5496 16.3556 32.3176 16.6541L31.6824 17.1316V25.0229V30.5027C31.658 32.7948 30.5221 33.9171 29.0321 34.1081C28.3969 34.2036 28.0916 33.6305 28.0916 33.6305C27.6397 32.962 26.3206 31.6488 24.8061 31.3264V31.8517C24.8061 31.8517 24.8427 32.0785 24.5985 32.0785C22.3145 32.0666 21.3618 30.7773 21.3618 30.7773H15.6824C14.8397 31.5294 13.1176 31.7681 12.4947 31.8398C12.226 31.8756 12.2626 31.6607 12.2626 31.6607V22.7427C12.0672 22.8382 11.9573 22.886 11.9573 22.886C10.7115 23.3874 9.50229 23.2799 9.50229 23.2799V31.2787C9.50229 31.7204 9.42901 31.8636 9.42901 31.8636C8.95267 33.0456 7.27939 33.7857 6.43664 34.0723C5.94809 34.2155 5.98473 33.7499 5.98473 33.7499V14.3739C5.98473 14.3739 5.91145 13.6695 6.44885 13.7292C7.3771 13.8247 9.36794 14.4813 9.36794 14.4813C9.36794 14.4813 11.2489 14.4813 13.7893 14.4932C13.2031 12.9293 11.8229 11.8549 11.8229 11.8549C11.774 11.819 11.7374 11.7832 11.713 11.7593H6.35114C6.0458 11.7474 5.92366 11.4848 5.92366 11.4848L5.32519 9.90889C5.14198 9.47911 5.60611 9.47911 5.60611 9.47911H29.5573L30.4611 8.73892C30.4611 8.73892 30.9863 8.26139 31.4137 8.85831L32.9649 11.2579C32.9649 11.2579 33.2214 11.6997 32.7817 11.7713H23.8412C24.1344 12.0459 24.4641 12.3801 24.6351 12.6309C24.6351 12.6309 24.9282 12.9293 24.5985 13.2636C24.6229 13.2516 24.1099 13.8605 23.4137 14.5171ZM51.2489 28.1986V23.2322H56.4885V28.1986H51.2489ZM45.2886 16.2004L45.2397 10.5774V8.47628H51.8595V11.5922H46.1191C46.1191 11.5922 45.7038 11.5683 45.826 12.0339L46.5832 13.4307C46.7664 13.8247 47.0962 13.8247 47.0962 13.8247H51.8595V15.6513V16.1766H45.4107C45.4107 16.1766 45.3618 16.1766 45.2886 16.2004ZM62.7542 8.47628V17.4898C62.2656 16.8451 61.3374 15.711 60.9466 15.3767C60.4214 14.9469 59.8351 15.7468 59.3832 16.1646H55.426V13.8128H61.826C62.1191 13.8128 62.2046 13.574 62.0458 13.3113C61.8748 13.0248 60.4458 11.2221 59.9328 10.7804C59.4076 10.3506 58.8214 11.1505 58.3695 11.5683H55.426V11.1744V10.5178C55.426 10.5178 55.9756 10.0402 56.4275 9.55074C56.6595 9.30003 56.5863 8.90606 55.9023 8.4524H62.7053L62.7542 8.47628ZM66.3206 8.79862L67.2122 7.9868C67.5176 7.70028 67.1756 7.36601 67.1756 7.36601L64.2687 5.0022C64 4.6918 63.658 5.01414 63.658 5.01414L62.4977 6.17216H44.9466C44.9466 6.17216 43.4565 5.14546 42.4916 4.91863C42.0763 4.82312 41.6733 4.70374 41.6733 5.27678V20.6773C41.6733 25.8467 41.9176 28.891 39.8901 33.4753C39.8901 33.4753 39.8412 33.547 39.8656 33.5947C39.8656 33.5947 39.8901 33.6544 40 33.6067C40.8427 33.1411 43.3221 31.7323 44.5435 29.3685C45.4107 27.6852 45.3496 25.7154 45.3252 18.815L45.313 16.9406L45.9359 18.1106C46.1069 18.4807 46.4977 18.4329 46.4977 18.4329C46.4977 18.4329 48.916 18.4329 51.8962 18.4329L51.9206 20.7132C51.9206 20.7132 55.1817 20.546 55.4382 19.3164V18.8866V18.4449C58.9069 18.4449 62.1924 18.4449 62.7664 18.4329V29.7983C62.7664 30.2639 62.5344 30.4907 62.0824 30.4907L59.9817 30.5027V23.7575V23.459L60.7878 22.6352C61.0809 22.3248 60.7511 22.0622 60.7511 22.0622L58.0519 19.8655C57.7954 19.579 57.4901 19.8775 57.4901 19.8775L56.4031 20.9519H53.2763C53.2763 20.9519 53.1542 20.9519 52.9954 20.9519H51.2122C50.9313 20.8206 49.6611 20.0804 48.4397 19.8655C47.7435 19.7342 47.7679 20.3789 47.7679 20.3789V31.3264C47.7679 31.3264 47.7435 31.5413 48 31.5055C48.6229 31.4458 50.345 31.207 51.1878 30.443H56.5374C56.5374 30.443 57.4901 31.7323 59.774 31.7443C60.0183 31.7443 59.9817 31.5174 59.9817 31.5174V31.3384C61.2641 31.804 62.3267 32.8904 62.7298 33.4753C62.7298 33.4753 63.0473 34.0484 63.6824 33.9648C65.1725 33.7738 66.3084 32.6516 66.3328 30.3594V8.79862H66.3206ZM0 38V0H72V38H0ZM35.8351 35.6959V2.30412H2.40611V35.6959H35.8351Z" fill="white"/>
</g>
</mask>
<g mask="url(#mask0_367_4228)">
<g id="Group">
<g id="Clip path group_2">
<mask id="mask1_367_4228" style="mask-type:luminance" maskUnits="userSpaceOnUse" x="0" y="0" width="73" height="39">
<g id="SVGID_4_">
<path id="Vector_2" d="M72.0611 0H0V38.203H72.0611V0Z" fill="white"/>
</g>
</mask>
<g mask="url(#mask1_367_4228)">
<path id="Vector_3" d="M78.107 -5.96875H-6.10669V43.9697H78.107V-5.96875Z" fill="white"/>
</g>
</g>
</g>
</g>
</g>
</g>
</svg>
